<?xml version="1.0" encoding="UTF-8"?>
<svg version="1.1" xmlns="http://www.w3.org/2000/svg" width="192" height="192">
<path d="M0 0 C63.36 0 126.72 0 192 0 C192 63.36 192 126.72 192 192 C128.64 192 65.28 192 0 192 C0 128.64 0 65.28 0 0 Z " fill="#EDEDED" transform="translate(0,0)"/>
<path d="M0 0 C3.555782 1.34211975 6.79105167 2.92244697 10.08203125 4.8203125 C11.01337891 5.35527344 11.94472656 5.89023437 12.90429688 6.44140625 C13.86400391 6.99699219 14.82371094 7.55257812 15.8125 8.125 C16.79154297 8.68832031 17.77058594 9.25164063 18.77929688 9.83203125 C21.18789555 11.21844415 23.59471395 12.60785055 26 14 C26 25.66666667 26 37.33333333 26 49 C19.25 53 19.25 53 17 53 C17 52.01 17 51.02 17 50 C16.690625 50.886875 16.38125 51.77375 16.0625 52.6875 C13.33613934 57.06620045 9.83212587 59.24047591 5 61 C1.30847933 59.76949311 0.28973742 58.26173892 -2.125 55.25 C-3.18074219 53.95835938 -3.18074219 53.95835938 -4.2578125 52.640625 C-6.0133054 49.97983307 -6.6279281 48.13442384 -7 45 C-7.33 45.33 -7.66 45.66 -8 46 C-9.66666667 44.33333333 -11.33333333 42.66666667 -13 41 C-13.61875 40.54625 -14.2375 40.0925 -14.875 39.625 C-16 38 -16 38 -16 34.9375 C-15.05879218 29.896088 -12.43162935 25.45948261 -10 21 C-12.0018276 23.0018276 -12.90468232 26.02515486 -14.0625 28.5625 C-14.61035156 29.76003906 -15.15820312 30.95757812 -15.72265625 32.19140625 C-16.14417969 33.11824219 -16.56570312 34.04507813 -17 35 C-20.02359038 32.00774216 -22.98803287 28.99387147 -25.8125 25.8125 C-26.71935547 24.80123047 -26.71935547 24.80123047 -27.64453125 23.76953125 C-29 22 -29 22 -29 20 C-29.99 19.67 -30.98 19.34 -32 19 C-32 17.35 -32 15.7 -32 14 C-31.47043701 13.70754395 -30.94087402 13.41508789 -30.39526367 13.11376953 C-27.99193111 11.78552194 -25.58970619 10.45528352 -23.1875 9.125 C-22.35412109 8.66480469 -21.52074219 8.20460938 -20.66210938 7.73046875 C-19.85966797 7.28574219 -19.05722656 6.84101562 -18.23046875 6.3828125 C-17.49207764 5.97434082 -16.75368652 5.56586914 -15.99291992 5.14501953 C-14.28741338 4.16513154 -12.63660994 3.09107329 -11 2 C-10.01 2 -9.02 2 -8 2 C-6.9739266 3.31337396 -5.97272675 4.64664105 -5 6 C-4.34 6 -3.68 6 -3 6 C-2.01 4.02 -1.02 2.04 0 0 Z " fill="#D93636" transform="translate(99,38)"/>
<path d="M0 0 C3.63581148 3.44512207 6.50243677 6.94073386 9.25 11.125 C9.93578125 12.15882812 10.6215625 13.19265625 11.328125 14.2578125 C13 17 13 17 14 20 C14.66 20.33 15.32 20.66 16 21 C12.40374405 28.25032952 9.40941915 33.74181039 2.015625 37.42578125 C0 38 0 38 -3 37 C-5.0078125 34.890625 -5.0078125 34.890625 -7.125 32.25 C-7.82882813 31.38890625 -8.53265625 30.5278125 -9.2578125 29.640625 C-11.11482496 26.82596038 -11.96455641 25.36714134 -12 22 C-10.86831479 19.55240175 -9.73633309 17.44906247 -8.3125 15.1875 C-7.5674377 13.9501644 -6.82393703 12.71188707 -6.08203125 11.47265625 C-5.72189941 10.87855957 -5.36176758 10.28446289 -4.99072266 9.67236328 C-3.13500485 6.53986773 -1.57441246 3.28002596 0 0 Z " fill="#D72525" transform="translate(104,61)"/>
<path d="M0 0 C2.34907949 3.52361923 2.35955779 4.8516976 2 9 C0.99023438 11.88427734 0.99023438 11.88427734 -0.40625 14.8359375 C-1.15068359 16.43115234 -1.15068359 16.43115234 -1.91015625 18.05859375 C-2.43480469 19.15300781 -2.95945312 20.24742188 -3.5 21.375 C-4.02464844 22.49261719 -4.54929687 23.61023438 -5.08984375 24.76171875 C-6.38308799 27.51280196 -7.68669788 30.25845007 -9 33 C-12.02359038 30.00774216 -14.98803287 26.99387147 -17.8125 23.8125 C-18.71935547 22.80123047 -18.71935547 22.80123047 -19.64453125 21.76953125 C-21 20 -21 20 -21 18 C-21.99 17.67 -22.98 17.34 -24 17 C-24 15.35 -24 13.7 -24 12 C-23.47043701 11.70754395 -22.94087402 11.41508789 -22.39526367 11.11376953 C-19.99193111 9.78552194 -17.58970619 8.45528352 -15.1875 7.125 C-14.35412109 6.66480469 -13.52074219 6.20460938 -12.66210938 5.73046875 C-11.85966797 5.28574219 -11.05722656 4.84101562 -10.23046875 4.3828125 C-9.49207764 3.97434082 -8.75368652 3.56586914 -7.99291992 3.14501953 C-2.51897655 0 -2.51897655 0 0 0 Z " fill="#D72727" transform="translate(91,40)"/>
<path d="M0 0 C3.95371199 1.79700005 5.91222747 4.02158409 8.625 7.4375 C9.40101562 8.40558594 10.17703125 9.37367187 10.9765625 10.37109375 C12.38328474 12.19874639 13.72067546 14.08101319 15 16 C16.86178676 17.97324628 18.73940776 19.92805202 20.63671875 21.8671875 C22 24 22 24 21.8359375 26.51953125 C20.65149037 30.03412905 18.92516535 32.83279248 17 36 C8.31034483 32.62068966 8.31034483 32.62068966 7 30 C5.01276732 29.29618843 3.01222047 28.6288189 1 28 C0 27 0 27 -0.11352539 24.40795898 C-0.10828857 23.28204346 -0.10305176 22.15612793 -0.09765625 20.99609375 C-0.09443359 19.78115234 -0.09121094 18.56621094 -0.08789062 17.31445312 C-0.07951172 16.03505859 -0.07113281 14.75566406 -0.0625 13.4375 C-0.05798828 12.15423828 -0.05347656 10.87097656 -0.04882812 9.54882812 C-0.03699545 6.36583978 -0.02051068 3.18294238 0 0 Z " fill="#D72A2A" transform="translate(67,60)"/>
<path d="M0 0 C3.53879001 1.17959667 4.17215964 2.1766488 6.25 5.1875 C6.79140625 5.94417969 7.3328125 6.70085938 7.890625 7.48046875 C9.36317014 10.82480542 9.00026878 12.51017335 8 16 C6.51171875 18.9296875 6.51171875 18.9296875 4.6875 21.875 C1.88415158 26.50110172 -0.6570912 31.12674969 -3 36 C-4.66666667 34.33333333 -6.33333333 32.66666667 -8 31 C-8.61875 30.54625 -9.2375 30.0925 -9.875 29.625 C-11.41394532 27.40207899 -10.99883097 25.77214428 -10.57910156 23.18847656 C-9.35371589 18.55763458 -7.06090864 14.33560432 -4.9375 10.0625 C-4.46505859 9.09248047 -3.99261719 8.12246094 -3.50585938 7.12304688 C-2.34579854 4.74433627 -1.17704645 2.37033901 0 0 Z " fill="#D72626" transform="translate(94,48)"/>
<path d="M0 0 C4.77609498 1.64178265 8.79382904 4.26546702 13 7 C12.41892368 10.7602985 11.34800504 13.53035032 9.4375 16.8125 C8.98246094 17.60269531 8.52742188 18.39289062 8.05859375 19.20703125 C7.70925781 19.79871094 7.35992187 20.39039062 7 21 C4.1470465 20.65418746 3.2014485 20.25060578 1.3671875 17.96875 C0.87476562 17.1540625 0.38234375 16.339375 -0.125 15.5 C-2.00498685 12.15349998 -2.00498685 12.15349998 -5 10 C-5.28875 11.134375 -5.5775 12.26875 -5.875 13.4375 C-6.24625 14.613125 -6.6175 15.78875 -7 17 C-7.66 17.33 -8.32 17.66 -9 18 C-8.25749403 13.91621717 -7.17076699 9.98060777 -6 6 C-5.01 6 -4.02 6 -3 6 C-2.01 4.02 -1.02 2.04 0 0 Z " fill="#DA4545" transform="translate(99,38)"/>
<path d="M0 0 C5.75 4.625 5.75 4.625 8 8 C7.74066246 12.66807565 5.37177691 16.09804443 3 20 C-0.0831351 18.80100302 -3.06279492 17.52299523 -6 16 C-6.49196648 10.09640219 -5.31411786 5.95908147 -2 1 C-1.34 0.67 -0.68 0.34 0 0 Z " fill="#D83232" transform="translate(81,76)"/>
<path d="M0 0 C2.31 0 4.62 0 7 0 C7 0.66 7 1.32 7 2 C8.32 2 9.64 2 11 2 C11 4.64 11 7.28 11 10 C11.66 10 12.32 10 13 10 C13 7.69 13 5.38 13 3 C13.66 3 14.32 3 15 3 C15 5.97 15 8.94 15 12 C12 12 9 12 6 12 C5.13375 12.020625 4.2675 12.04125 3.375 12.0625 C1 12 1 12 0 11 C-0.07226502 9.14712498 -0.0838122 7.29166122 -0.0625 5.4375 C-0.05347656 4.42558594 -0.04445313 3.41367188 -0.03515625 2.37109375 C-0.02355469 1.58863281 -0.01195313 0.80617188 0 0 Z " fill="#EBD4D4" transform="translate(67,118)"/>
<path d="M0 0 C4.65656501 3.57364291 7.82292208 7.04749618 11 12 C11 12.66 11 13.32 11 14 C8 16 8 16 5.8125 15.875 C1.97669604 14.68163877 -1.46313023 12.88691563 -5 11 C-3.77472971 6.94718288 -2.30119506 3.55639236 0 0 Z " fill="#D72929" transform="translate(90,87)"/>
<path d="M0 0 C1.4540625 0.0309375 1.4540625 0.0309375 2.9375 0.0625 C2.99141993 1.85383978 3.03025571 3.64563899 3.0625 5.4375 C3.08570312 6.43523437 3.10890625 7.43296875 3.1328125 8.4609375 C2.9375 11.0625 2.9375 11.0625 0.9375 13.0625 C-1.6875 13.1875 -1.6875 13.1875 -4.0625 13.0625 C-4.08936553 11.08340602 -4.10883375 9.10421029 -4.125 7.125 C-4.13660156 6.02285156 -4.14820312 4.92070313 -4.16015625 3.78515625 C-4.02168594 -0.07539595 -3.9087853 0.07977113 0 0 Z " fill="#DF6D6D" transform="translate(122.0625,119.9375)"/>
<path d="M0 0 C2.31 0 4.62 0 7 0 C7 3.96 7 7.92 7 12 C4.69 12 2.38 12 0 12 C0 8.04 0 4.08 0 0 Z " fill="#DE6363" transform="translate(94,118)"/>
<path d="M0 0 C0 3.96 0 7.92 0 12 C-6.75 16 -6.75 16 -9 16 C-8.33333333 13.33333333 -7.66666667 10.66666667 -7 8 C-6.86464844 7.29875 -6.72929688 6.5975 -6.58984375 5.875 C-5.78511267 3.31691443 -2.90968326 0 0 0 Z " fill="#E49797" transform="translate(125,75)"/>
<path d="M0 0 C1 3 1 3 -0.21484375 5.7421875 C-1.36047763 7.82563052 -2.50631 9.90896441 -3.65234375 11.9921875 C-5.00718003 15.01602499 -5.41644317 16.74261577 -5 20 C-3.60414215 21.81476003 -3.60414215 21.81476003 -2 23 C-2.33 23.66 -2.66 24.32 -3 25 C-7.7612703 21.49169556 -7.7612703 21.49169556 -8.8515625 19.24609375 C-10.46741721 16.08583369 -12.72308623 13.50901645 -15 10.8125 C-15.45117188 10.26658203 -15.90234375 9.72066406 -16.3671875 9.15820312 C-18.82188648 6.14757339 -18.82188648 6.14757339 -22 4 C-22 3.34 -22 2.68 -22 2 C-19 2 -19 2 -17.6496582 3.28515625 C-17.20452881 3.87167969 -16.75939941 4.45820312 -16.30078125 5.0625 C-15.86161377 5.63097656 -15.42244629 6.19945312 -14.9699707 6.78515625 C-14.14952271 7.88150391 -14.14952271 7.88150391 -13.3125 9 C-11.559375 11.31 -9.80625 13.62 -8 16 C-5.36 10.72 -2.72 5.44 0 0 Z " fill="#E39595" transform="translate(89,56)"/>
<path d="M0 0 C2.5 0.125 2.5 0.125 3.5 1.125 C3.6328125 2.9375 3.6328125 2.9375 3.625 5.125 C3.62757812 5.846875 3.63015625 6.56875 3.6328125 7.3125 C3.5 9.125 3.5 9.125 2.5 10.125 C0 10.25 0 10.25 -2.5 10.125 C-3.5 9.125 -3.5 9.125 -3.6328125 7.3125 C-3.63023438 6.590625 -3.62765625 5.86875 -3.625 5.125 C-3.62757812 4.403125 -3.63015625 3.68125 -3.6328125 2.9375 C-3.42186711 0.05871588 -2.89175802 0.1445879 0 0 Z " fill="#DA4040" transform="translate(112.5,119.875)"/>
<path d="M0 0 C0.33 0.66 0.66 1.32 1 2 C0.690625 2.845625 0.38125 3.69125 0.0625 4.5625 C-0.01582938 8.87061583 0.99765411 9.49605678 3.875 12.5625 C4.61492187 13.28566406 5.35484375 14.00882813 6.1171875 14.75390625 C8.19457325 17.23211539 8.65412482 18.82575843 9 22 C8.484375 21.34 7.96875 20.68 7.4375 20 C4.38791415 16.24666356 1.2013319 12.62397965 -2 9 C-3.98223068 11.58504604 -5.62594577 14.04049858 -7 17 C-7.66 16.67 -8.32 16.34 -9 16 C-8.69964844 15.49210937 -8.39929688 14.98421875 -8.08984375 14.4609375 C-6.07282673 10.80979483 -4.94584341 8.75819226 -5.25 4.5 C-5.4975 3.675 -5.745 2.85 -6 2 C-5.01 2.66 -4.02 3.32 -3 4 C-2.01 2.68 -1.02 1.36 0 0 Z " fill="#E39696" transform="translate(93,79)"/>
<path d="M0 0 C1.98 0 3.96 0 6 0 C6 0.99 6 1.98 6 3 C5.34 3 4.68 3 4 3 C4 2.34 4 1.68 4 1 C3.34 1 2.68 1 2 1 C2 3.97 2 6.94 2 10 C2.66 10 3.32 10 4 10 C4 9.34 4 8.68 4 8 C4.66 8 5.32 8 6 8 C6 9.32 6 10.64 6 12 C4.33388095 12.042721 2.66617115 12.04063832 1 12 C0 11 0 11 -0.09765625 8.49609375 C-0.08605469 7.48675781 -0.07445313 6.47742188 -0.0625 5.4375 C-0.05347656 4.42558594 -0.04445313 3.41367188 -0.03515625 2.37109375 C-0.02355469 1.58863281 -0.01195313 0.80617188 0 0 Z " fill="#D83434" transform="translate(67,118)"/>
<path d="M0 0 C0.66 0 1.32 0 2 0 C2 2.64 2 5.28 2 8 C2.66 8 3.32 8 4 8 C4 5.69 4 3.38 4 1 C4.66 1 5.32 1 6 1 C6 3.97 6 6.94 6 10 C4.02 10 2.04 10 0 10 C0 6.7 0 3.4 0 0 Z " fill="#D93838" transform="translate(76,120)"/>
<path d="M0 0 C0.99 0 1.98 0 3 0 C3 4.29 3 8.58 3 13 C2.01 13 1.02 13 0 13 C0 8.71 0 4.42 0 0 Z " fill="#DC5757" transform="translate(104,117)"/>
<path d="M0 0 C0.33 0 0.66 0 1 0 C1 3.96 1 7.92 1 12 C-0.32 10.68 -1.64 9.36 -3 8 C-2.82813436 4.47675428 -1.98272184 2.97408276 0 0 Z " fill="#D93A3A" transform="translate(124,75)"/>
<path d="M0 0 C1.66611905 -0.042721 3.33382885 -0.04063832 5 0 C6 1 6 1 6.09765625 2.84765625 C6.06510417 4.8984375 6.03255208 6.94921875 6 9 C5.67 9 5.34 9 5 9 C4.67 7.02 4.34 5.04 4 3 C3.67 4.65 3.34 6.3 3 8 C2.34 8 1.68 8 1 8 C0.67 5.36 0.34 2.72 0 0 Z " fill="#E39090" transform="translate(110,120)"/>
<path d="M0 0 C0.99 0.33 1.98 0.66 3 1 C2.01 3.31 1.02 5.62 0 8 C-1.5625 6.75 -1.5625 6.75 -3 5 C-2.8125 2.875 -2.8125 2.875 -2 1 C-1.34 0.67 -0.68 0.34 0 0 Z " fill="#D83232" transform="translate(95,36)"/>
<path d="M0 0 C0.99 0.33 1.98 0.66 3 1 C3 4.3 3 7.6 3 11 C2.01 10.67 1.02 10.34 0 10 C-0.19412181 8.52168779 -0.38012131 7.04230684 -0.5625 5.5625 C-0.66691406 4.73878906 -0.77132812 3.91507812 -0.87890625 3.06640625 C-0.91886719 2.38449219 -0.95882812 1.70257813 -1 1 C-0.67 0.67 -0.34 0.34 0 0 Z " fill="#D93535" transform="translate(85,119)"/>
<path d="M0 0 C0.66 0 1.32 0 2 0 C2.66 1.32 3.32 2.64 4 4 C-0.75 7 -0.75 7 -3 7 C-1.125 2.25 -1.125 2.25 0 0 Z " fill="#D83030" transform="translate(119,84)"/>
</svg>
