<?xml version="1.0" encoding="UTF-8"?>
<svg version="1.1" xmlns="http://www.w3.org/2000/svg" width="512" height="512">
<path d="M0 0 C168.96 0 337.92 0 512 0 C512 168.96 512 337.92 512 512 C343.04 512 174.08 512 0 512 C0 343.04 0 174.08 0 0 Z " fill="#EDEDED" transform="translate(0,0)"/>
<path d="M0 0 C3.64187138 1.37309059 6.96197378 3.01013331 10.34375 4.93359375 C11.84228516 5.7834082 11.84228516 5.7834082 13.37109375 6.65039062 C14.40363281 7.24013672 15.43617188 7.82988281 16.5 8.4375 C17.53253906 9.02337891 18.56507813 9.60925781 19.62890625 10.21289062 C22.42359938 11.80135814 25.21669789 13.39165497 28 15 C28.91716797 15.33733154 29.83433594 15.67466309 30.77929688 16.0222168 C33.46647989 18.41545224 33.41876789 19.19770265 33.7421875 22.68896484 C33.81614003 24.69541481 33.85810802 26.70319621 33.875 28.7109375 C33.89401367 29.7888858 33.91302734 30.86683411 33.93261719 31.97744751 C33.96236769 34.27226478 33.9782391 36.56729682 33.98144531 38.86230469 C33.99961812 42.30270425 34.1026751 45.73330213 34.2109375 49.171875 C34.44454535 65.15001572 31.05815898 76.75948174 22 90 C21.67 90.33 21.34 90.66 21 91 C20.63239269 93.32817964 20.29758419 95.6618385 20 98 C18.515 97.505 18.515 97.505 17 97 C16.59467041 98.31556885 16.59467041 98.31556885 16.18115234 99.65771484 C14.29650382 104.99067026 11.41514489 109.72073652 8.625 114.625 C7.75875 116.17960937 7.75875 116.17960937 6.875 117.765625 C6.31039062 118.76335937 5.74578125 119.76109375 5.1640625 120.7890625 C4.65311035 121.69350098 4.1421582 122.59793945 3.61572266 123.52978516 C-0.5519301 129.9015456 -6.63489622 132.9885084 -13.0625 136.75 C-14.06861328 137.35199219 -15.07472656 137.95398438 -16.11132812 138.57421875 C-17.55862305 139.42693359 -17.55862305 139.42693359 -19.03515625 140.296875 C-19.9156665 140.81604492 -20.79617676 141.33521484 -21.70336914 141.87011719 C-24 143 -24 143 -27 143 C-28.9453125 140.98046875 -28.9453125 140.98046875 -31.125 138.1875 C-31.92164063 137.18074219 -32.71828125 136.17398438 -33.5390625 135.13671875 C-34.35117187 134.10160156 -35.16328125 133.06648437 -36 132 C-37.49537799 130.16289473 -38.99526106 128.32944577 -40.5 126.5 C-41.23476563 125.60152344 -41.96953125 124.70304687 -42.7265625 123.77734375 C-44.30300376 121.8514851 -45.88125492 119.9271071 -47.4609375 118.00390625 C-48.25757813 117.03324219 -49.05421875 116.06257813 -49.875 115.0625 C-50.59429687 114.18722656 -51.31359375 113.31195313 -52.0546875 112.41015625 C-53.01761719 111.21712891 -53.01761719 111.21712891 -54 110 C-54.62132812 109.35933594 -55.24265625 108.71867187 -55.8828125 108.05859375 C-57 106 -57 106 -56.24487305 103.21289062 C-55.06806394 100.17566611 -53.74854576 97.39772958 -52.19921875 94.53515625 C-51.64041016 93.49883057 -51.08160156 92.46250488 -50.50585938 91.39477539 C-49.90580078 90.29512451 -49.30574219 89.19547363 -48.6875 88.0625 C-48.06810547 86.91966553 -47.44871094 85.77683105 -46.81054688 84.59936523 C-41.63270724 75.06620607 -36.31161171 65.61509231 -30.9375 56.19140625 C-27.88763905 50.83257039 -24.93525311 45.42228163 -22 40 C-18.66292494 41.11235835 -18.35284813 41.55000034 -16.5390625 44.3671875 C-16.0742749 45.0782666 -15.6094873 45.7893457 -15.13061523 46.52197266 C-14.63376221 47.29847168 -14.13690918 48.0749707 -13.625 48.875 C-12.54671671 50.5267889 -11.46725045 52.17780604 -10.38671875 53.828125 C-9.82903809 54.68341797 -9.27135742 55.53871094 -8.69677734 56.41992188 C-5.99711325 60.52496507 -3.22025109 64.57599932 -0.4375 68.625 C0.0989917 69.40584961 0.6354834 70.18669922 1.18823242 70.99121094 C2.26037428 72.55157327 3.33271919 74.1117961 4.40527344 75.671875 C6.01041051 78.01519819 7.60419204 80.36589166 9.1953125 82.71875 C9.6998999 83.4617334 10.2044873 84.2047168 10.72436523 84.97021484 C11.67786083 86.37444513 12.62806257 87.78091941 13.57446289 89.18994141 C15.77564786 92.63691202 15.77564786 92.63691202 19 95 C11.92977464 83.77194563 4.49613634 72.80458143 -3.02734375 61.87646484 C-5.01038439 58.98485782 -6.97476429 56.08119816 -8.9375 53.17578125 C-10.18693137 51.34596577 -11.43690968 49.51652359 -12.6875 47.6875 C-13.55121216 46.39755127 -13.55121216 46.39755127 -14.43237305 45.08154297 C-14.97418213 44.29537598 -15.51599121 43.50920898 -16.07421875 42.69921875 C-16.54432373 42.00658936 -17.01442871 41.31395996 -17.4987793 40.6003418 C-19.26705382 38.71531342 -20.47895017 38.37292434 -23 38 C-23.38631592 38.72775635 -23.77263184 39.4555127 -24.1706543 40.20532227 C-31.49599159 53.98751231 -38.89117111 67.7124555 -46.61669922 81.27587891 C-50.51914265 88.12880051 -54.31873001 95.02566667 -58 102 C-62.17801653 100.43812466 -64.51651229 97.35691474 -67.25 94 C-67.72727539 93.42056641 -68.20455078 92.84113281 -68.69628906 92.24414062 C-69.66730947 91.06332785 -70.63575089 89.88038944 -71.6015625 88.6953125 C-72.88507917 87.13931743 -74.20648307 85.61477869 -75.53125 84.09375 C-76.2634375 83.2378125 -76.995625 82.381875 -77.75 81.5 C-78.40484375 80.7471875 -79.0596875 79.994375 -79.734375 79.21875 C-81.40416383 76.29146588 -80.86419071 75.21047429 -80 72 C-79.27085661 70.19550744 -78.48387994 68.41384089 -77.65625 66.65234375 C-77.1597998 65.58902832 -76.66334961 64.52571289 -76.15185547 63.43017578 C-75.60674316 62.27759277 -75.06163086 61.12500977 -74.5 59.9375 C-73.92942268 58.72139193 -73.35928344 57.50507823 -72.78955078 56.28857422 C-71.2135789 52.92790103 -69.63008011 49.57082235 -68.04504395 46.2144165 C-66.56731941 43.08316291 -65.09357577 39.95003993 -63.6194458 36.8170929 C-60.27034155 29.70084187 -56.91659544 22.58677408 -53.5546875 15.4765625 C-53.23954193 14.80888351 -52.92439636 14.14120453 -52.59970093 13.45329285 C-50.7809335 9.61067052 -48.91498008 5.79556809 -47 2 C-44.1403538 4.71419432 -41.88226954 7.44360781 -39.72265625 10.73828125 C-39.12646484 11.64126953 -38.53027344 12.54425781 -37.91601562 13.47460938 C-37.30435547 14.41111328 -36.69269531 15.34761719 -36.0625 16.3125 C-34.84614313 18.16347785 -33.62871562 20.01375263 -32.41015625 21.86328125 C-31.83281738 22.74193848 -31.25547852 23.6205957 -30.66064453 24.52587891 C-29.17501031 26.73925985 -27.63747754 28.89570904 -26.05859375 31.04296875 C-24 34 -24 34 -24 36 C-23.01 35.67 -22.02 35.34 -21 35 C-20.01 35.495 -20.01 35.495 -19 36 C-18.78988281 35.23429687 -18.57976562 34.46859375 -18.36328125 33.6796875 C-16.46213259 28.54822034 -13.83392301 23.90584157 -11.1875 19.125 C-10.66607422 18.16980469 -10.14464844 17.21460938 -9.60742188 16.23046875 C-6.57102701 10.70354776 -3.39732819 5.3126426 0 0 Z " fill="#D72424" transform="translate(300,122)"/>
<path d="M0 0 C2.19845032 3.1675785 4.25087419 6.39060458 6.27929688 9.66796875 C6.71177734 10.34472656 7.14425781 11.02148438 7.58984375 11.71875 C7.98034912 12.34716797 8.37085449 12.97558594 8.77319336 13.62304688 C9.17803955 14.07744141 9.58288574 14.53183594 10 15 C10.99 15 11.98 15 13 15 C13 15.99 13 16.98 13 18 C11.515 18.495 11.515 18.495 10 19 C8.61946367 21.43692357 7.42201227 23.81513683 6.26171875 26.35546875 C5.90403412 27.11706299 5.54634949 27.87865723 5.17782593 28.66333008 C4.00477393 31.16702096 2.8463195 33.67719439 1.6875 36.1875 C0.88243698 37.91038346 0.07635876 39.63279289 -0.73071289 41.35473633 C-4.24567378 48.86603517 -7.72301532 56.39468196 -11.19520569 63.92582703 C-12.47458302 66.69912232 -13.75767767 69.47069208 -15.0406189 72.24234009 C-15.92350412 74.15714567 -16.79773691 76.07572874 -17.67114258 77.99487305 C-18.20118896 79.14511963 -18.73123535 80.29536621 -19.27734375 81.48046875 C-19.73359131 82.47973389 -20.18983887 83.47899902 -20.65991211 84.50854492 C-21.89826173 86.81085097 -23.04110663 88.29860023 -25 90 C-31.74900612 82.0651872 -38.42519638 74.08030427 -45 66 C-46.52055301 64.14560344 -48.04138724 62.29143744 -49.5625 60.4375 C-50.2946875 59.53 -51.026875 58.6225 -51.78125 57.6875 C-53.25732118 55.8995828 -54.77897415 54.1483216 -56.34375 52.4375 C-57.0759375 51.6125 -57.808125 50.7875 -58.5625 49.9375 C-59.22378906 49.22464844 -59.88507813 48.51179688 -60.56640625 47.77734375 C-62.71665673 43.61159964 -62.27598036 39.59911509 -62 35 C-61.00709961 34.42838135 -61.00709961 34.42838135 -59.99414062 33.84521484 C-47.64768856 26.73517096 -35.30831163 19.61344105 -23 12.4375 C-22.04158203 11.8791748 -21.08316406 11.32084961 -20.09570312 10.74560547 C-14.68820311 7.58933309 -9.3198703 4.3821317 -3.99609375 1.08618164 C-2 0 -2 0 0 0 Z " fill="#D72424" transform="translate(241,105)"/>
<path d="M0 0 C3.71200862 3.69889922 7.22616234 7.45459242 10.625 11.4375 C11.14352539 12.04368164 11.66205078 12.64986328 12.19628906 13.27441406 C17.21137788 19.17863824 21.98675504 25.25862371 26.73486328 31.37792969 C29.78188769 35.28461247 32.89528732 39.1391252 36 43 C36.99 42.67 37.98 42.34 39 42 C39.21269531 43.01320312 39.42539063 44.02640625 39.64453125 45.0703125 C40.94266466 49.59614485 43.5464407 52.46399468 46.6875 55.875 C47.77528122 57.09210469 48.86122324 58.31085569 49.9453125 59.53125 C50.4702832 60.1190625 50.99525391 60.706875 51.53613281 61.3125 C54.07731554 64.24189543 56.34458513 67.37028454 58.59765625 70.5234375 C59.06042969 71.01070313 59.52320313 71.49796875 60 72 C60.99 72 61.98 72 63 72 C62.505 73.485 62.505 73.485 62 75 C61.01 74.505 61.01 74.505 60 74 C59.72671875 74.71188477 59.4534375 75.42376953 59.171875 76.15722656 C57.10225031 81.17779112 54.504648 85.93564122 52 90.75 C51.18015625 92.34908203 51.18015625 92.34908203 50.34375 93.98046875 C49.8178125 94.99238281 49.291875 96.00429687 48.75 97.046875 C48.03070313 98.43664551 48.03070313 98.43664551 47.296875 99.85449219 C46 102 46 102 44 103 C41.69335938 101.96777344 41.69335938 101.96777344 38.84375 100.359375 C37.82152344 99.78316406 36.79929688 99.20695312 35.74609375 98.61328125 C34.13927734 97.69095703 34.13927734 97.69095703 32.5 96.75 C31.42878906 96.15058594 30.35757813 95.55117187 29.25390625 94.93359375 C21.25704553 90.3855683 21.25704553 90.3855683 19 87 C19.97875977 84.09594727 19.97875977 84.09594727 21.69140625 80.56640625 C21.99312241 79.93322983 22.29483856 79.30005341 22.60569763 78.64768982 C23.57835668 76.61277054 24.56957809 74.58759831 25.5625 72.5625 C26.83964344 69.92036728 28.10944519 67.27473685 29.37890625 64.62890625 C29.68921783 63.98571442 29.99952942 63.34252258 30.31924438 62.67984009 C33.10204376 56.87742887 35.60723107 50.97385051 38 45 C37.34 45 36.68 45 36 45 C35.75072754 45.81549316 35.50145508 46.63098633 35.24462891 47.47119141 C33.78359589 51.61355533 31.97819013 55.50148624 30.0859375 59.4609375 C29.71143463 60.25150543 29.33693176 61.04207336 28.95108032 61.8565979 C27.76226286 64.36426992 26.56870968 66.86965368 25.375 69.375 C24.56478965 71.08188199 23.75489048 72.78891173 22.9453125 74.49609375 C20.96713929 78.66578118 18.98471772 82.83342395 17 87 C15.28969148 86.08702392 13.58185105 85.16942376 11.875 84.25 C10.44800781 83.48429687 10.44800781 83.48429687 8.9921875 82.703125 C8.00476563 82.14109375 7.01734375 81.5790625 6 81 C4.9623349 80.4600238 3.9246698 79.92004761 2.8555603 79.3637085 C0 77 0 77 -0.7215271 73.59576416 C-0.73885522 72.22306586 -0.72310079 70.84970568 -0.68115234 69.47753906 C-0.6820285 68.72593002 -0.68290466 67.97432098 -0.68380737 67.19993591 C-0.67963398 64.72076708 -0.63300048 62.24431969 -0.5859375 59.765625 C-0.57474431 58.04499795 -0.5662047 56.32435175 -0.56021118 54.60369873 C-0.53732211 50.07894931 -0.4783993 45.55535893 -0.4119873 41.03106689 C-0.3505658 36.41279785 -0.32319652 31.79434117 -0.29296875 27.17578125 C-0.22865526 18.11667876 -0.12627558 9.05843583 0 0 Z " fill="#D72424" transform="translate(179,154)"/>
<path d="M0 0 C3.62387102 1.36859176 6.93833684 2.99181604 10.30859375 4.8984375 C11.30310547 5.46046875 12.29761719 6.0225 13.32226562 6.6015625 C14.35029297 7.18679687 15.37832031 7.77203125 16.4375 8.375 C17.46166016 8.9525 18.48582031 9.53 19.54101562 10.125 C24.48196555 12.92647064 29.33790471 15.75332644 34 19 C28.04589611 31.21529622 21.62131028 43.1343776 15 55 C12.07253666 52.22258069 9.75369022 49.38914849 7.50390625 46.04296875 C6.86259766 45.09486328 6.22128906 44.14675781 5.56054688 43.16992188 C4.90119141 42.18572266 4.24183594 41.20152344 3.5625 40.1875 C2.25200335 38.24301677 0.9408201 36.29899609 -0.37109375 34.35546875 C-0.98839355 33.43040527 -1.60569336 32.5053418 -2.24169922 31.55224609 C-3.76213796 29.34526655 -5.36760337 27.27073456 -7.03515625 25.17578125 C-9 22 -9 22 -9.06640625 19.0859375 C-7.67947619 15.0724769 -5.90469172 11.38270992 -3.9375 7.625 C-3.37192383 6.52091797 -3.37192383 6.52091797 -2.79492188 5.39453125 C-1.87055636 3.59260354 -0.93627386 1.79576901 0 0 Z " fill="#D72424" transform="translate(264,101)"/>
<path d="M0 0 C3.38219683 2.64767584 6.12455835 5.15727974 8.75 8.5625 C11.60869966 12.22034835 14.49177606 15.84916613 17.4375 19.4375 C18.17742187 20.33984375 18.91734375 21.2421875 19.6796875 22.171875 C20.44539063 23.10515625 21.21109375 24.0384375 22 25 C23.68813434 27.06198172 25.37528748 29.12476368 27.0625 31.1875 C27.81660156 32.10917969 28.57070313 33.03085937 29.34765625 33.98046875 C29.89292969 34.64691406 30.43820312 35.31335938 31 36 C28.64684282 38.55244737 26.13179892 40.3557933 23.1875 42.1875 C22.35605469 42.71730469 21.52460938 43.24710937 20.66796875 43.79296875 C17.46329062 45.24281581 15.49809005 45.27299266 12 45 C9.37866211 43.85424805 9.37866211 43.85424805 6.77734375 42.26171875 C5.82666016 41.68873047 4.87597656 41.11574219 3.89648438 40.52539062 C2.92001953 39.91888672 1.94355469 39.31238281 0.9375 38.6875 C-0.04283203 38.09259766 -1.02316406 37.49769531 -2.03320312 36.88476562 C-3.86175689 35.7737299 -5.68710059 34.65738038 -7.50805664 33.53393555 C-9.99424361 32.00354339 -12.49398839 30.49766231 -15 29 C-13.71939982 24.81238337 -12.13653086 21.17943621 -9.9609375 17.3828125 C-9.38085938 16.36445313 -8.80078125 15.34609375 -8.203125 14.296875 C-7.29820312 12.72679687 -7.29820312 12.72679687 -6.375 11.125 C-5.76398438 10.05507812 -5.15296875 8.98515625 -4.5234375 7.8828125 C-3.0203689 5.25244245 -1.51243714 2.62499074 0 0 Z " fill="#D72424" transform="translate(241,230)"/>
<path d="M0 0 C1.8125 1.5625 1.8125 1.5625 3 3 C2.77183594 3.55429688 2.54367187 4.10859375 2.30859375 4.6796875 C1.87740234 5.76636719 1.87740234 5.76636719 1.4375 6.875 C1.00244141 7.95394531 1.00244141 7.95394531 0.55859375 9.0546875 C-0.2537118 11.05649404 -0.2537118 11.05649404 1 13 C0.06803387 15.28062865 -1.05784784 17.42458018 -2.1875 19.61328125 C-3.20258317 22.59508805 -2.84920393 23.98057748 -2 27 C-0.61727759 29.50801022 -0.61727759 29.50801022 1.16796875 31.984375 C1.81443359 32.92023438 2.46089844 33.85609375 3.12695312 34.8203125 C3.80693359 35.78710938 4.48691406 36.75390625 5.1875 37.75 C6.51471337 39.66118725 7.84154073 41.57264261 9.16796875 43.484375 C9.81040527 44.40541016 10.4528418 45.32644531 11.11474609 46.27539062 C13.79520314 50.14924463 16.40603509 54.06786406 19 58 C21.63971584 54.71893767 23.53379679 51.25419053 25.46875 47.51953125 C26.12854789 46.26087979 26.78871504 45.00242184 27.44921875 43.74414062 C28.48025127 41.77107671 29.50821869 39.79658676 30.52978516 37.81860352 C31.5217425 35.90181554 32.52551895 33.99161946 33.53125 32.08203125 C34.12486328 30.93968018 34.71847656 29.7973291 35.33007812 28.62036133 C37 26 37 26 40 25 C39.4097078 28.94666437 38.19552358 31.79489795 36.19921875 35.23828125 C35.63396484 36.22376953 35.06871094 37.20925781 34.48632812 38.22460938 C33.5959082 39.75311523 33.5959082 39.75311523 32.6875 41.3125 C28.94060512 47.79798915 25.26330048 54.25584567 22 61 C19.73388672 61.30834961 19.73388672 61.30834961 17 61 C15.07470703 58.93969727 15.07470703 58.93969727 13.2578125 56.06640625 C12.58363281 55.02419922 11.90945313 53.98199219 11.21484375 52.90820312 C10.52519531 51.80412109 9.83554687 50.70003906 9.125 49.5625 C7.7559836 47.41580983 6.38362696 45.2712459 5.0078125 43.12890625 C4.34426758 42.0939502 3.68072266 41.05899414 2.99707031 39.99267578 C0.21239328 35.81974534 -2.83050361 31.88577027 -6 28 C-6.61875 29.37381836 -6.61875 29.37381836 -7.25 30.77539062 C-8.81979985 34.25848483 -10.39394488 37.73960219 -11.96923828 41.22021484 C-12.64322855 42.71091146 -13.31612597 44.2021028 -13.98779297 45.69384766 C-17.90555192 54.39279968 -21.94360812 63.00484275 -26.2495575 71.51893616 C-29.0977736 77.15624983 -31.74640203 82.86730082 -34.28320312 88.65039062 C-35.11258966 90.47029195 -36.04778299 92.24124885 -37 94 C-38.485 94.495 -38.485 94.495 -40 95 C-38.59649368 90.49986863 -36.8265213 86.27669851 -34.796875 82.03125 C-34.48212219 81.36556 -34.16736938 80.69987 -33.84307861 80.01400757 C-32.81506601 77.84122982 -31.78249281 75.67065182 -30.75 73.5 C-29.67267886 71.22533279 -28.59661706 68.95007264 -27.52062988 66.67477417 C-26.78492438 65.11919554 -26.04883707 63.56379742 -25.31237793 62.00857544 C-21.51107837 53.97826226 -17.75231448 45.92829085 -14 37.875 C-13.3890215 36.56444189 -12.77801958 35.25389469 -12.16699219 33.94335938 C-10.77748691 30.96247577 -9.38845793 27.98137155 -8 25 C-7.01 25.33 -6.02 25.66 -5 26 C-5 25.01 -5 24.02 -5 23 C-5.66 23 -6.32 23 -7 23 C-7.31453125 22.41992188 -7.6290625 21.83984375 -7.953125 21.2421875 C-9.95712688 17.58428045 -11.93081637 14.00925426 -14.375 10.625 C-14.91125 9.75875 -15.4475 8.8925 -16 8 C-14.75737548 4.27212644 -13.54939866 3.76087611 -10.25 1.75 C-9.38890625 1.20859375 -8.5278125 0.6671875 -7.640625 0.109375 C-4.50536656 -1.20780458 -3.16952937 -1.15446434 0 0 Z " fill="#ECDFDF" transform="translate(259,97)"/>
<path d="M0 0 C4.95 0 9.9 0 15 0 C17.75944605 2.75944605 17.25805677 4.39236698 17.265625 8.25 C17.26949219 10.12171875 17.26949219 10.12171875 17.2734375 12.03125 C17.26570313 13.3409375 17.25796875 14.650625 17.25 16 C17.25773437 17.3096875 17.26546875 18.619375 17.2734375 19.96875 C17.27085937 21.2165625 17.26828125 22.464375 17.265625 23.75 C17.26336914 24.89984375 17.26111328 26.0496875 17.25878906 27.234375 C17 30 17 30 15 32 C10.05 32 5.1 32 0 32 C0 21.44 0 10.88 0 0 Z " fill="#D72323" transform="translate(253,314)"/>
<path d="M0 0 C1.32 0 2.64 0 4 0 C5.59301758 1.67041016 5.59301758 1.67041016 7.14453125 4.0390625 C7.73161865 4.91900879 8.31870605 5.79895508 8.92358398 6.70556641 C9.54692627 7.66897949 10.17026855 8.63239258 10.8125 9.625 C12.15323746 11.64610429 13.49439551 13.66692964 14.8359375 15.6875 C15.52268555 16.73164063 16.20943359 17.77578125 16.91699219 18.8515625 C20.20065059 23.81476676 23.57250856 28.71676268 26.9375 33.625 C28.75680788 36.29416245 30.57387737 38.96483675 32.390625 41.63574219 C33.40217842 43.12176817 34.41501091 44.60692511 35.4296875 46.09082031 C36.60325981 47.80761435 37.77071714 49.52858445 38.9375 51.25 C39.54464844 52.14203125 40.15179688 53.0340625 40.77734375 53.953125 C42 56 42 56 42 58 C37.66684274 56.49665973 35.89127392 53.26554628 33.5625 49.5625 C32.67717609 48.19440886 31.79038579 46.82726584 30.90234375 45.4609375 C30.43296387 44.73487305 29.96358398 44.00880859 29.47998047 43.26074219 C26.92584052 39.35916912 24.27135898 35.52685087 21.625 31.6875 C18.22623601 26.75211457 14.85602475 21.80321937 11.57421875 16.7890625 C11.02620605 15.95415283 10.47819336 15.11924316 9.91357422 14.2590332 C8.86365257 12.65469273 7.81949001 11.04656535 6.78173828 9.43432617 C6.07960205 8.36275269 6.07960205 8.36275269 5.36328125 7.26953125 C4.95376221 6.63635986 4.54424316 6.00318848 4.12231445 5.35083008 C3.75195068 4.90505615 3.38158691 4.45928223 3 4 C2.34 4 1.68 4 1 4 C0.5373877 4.8751123 0.07477539 5.75022461 -0.40185547 6.65185547 C-16.04969498 36.23976823 -16.04969498 36.23976823 -22.72167969 48.12792969 C-26.59182875 55.02659714 -30.30669169 62.00541052 -34 69 C-34.495 68.01 -34.495 68.01 -35 67 C-36.485 67.495 -36.485 67.495 -38 68 C-44.17698619 60.73771157 -50.30966119 53.4478905 -56.3203125 46.046875 C-57.83746979 44.12984433 -57.83746979 44.12984433 -59 43 C-59.04080783 41.00041636 -59.04254356 38.99954746 -59 37 C-59.66 36.67 -60.32 36.34 -61 36 C-59.68 34.68 -58.36 33.36 -57 32 C-56 35 -56 35 -56.77734375 37.26953125 C-57.31530699 40.27565011 -57.31530699 40.27565011 -54.75390625 43.19921875 C-53.70462085 44.37509579 -52.63984053 45.53727218 -51.5625 46.6875 C-50.45037438 47.923177 -49.33970378 49.16016504 -48.23046875 50.3984375 C-47.68052246 51.00526367 -47.13057617 51.61208984 -46.56396484 52.23730469 C-43.72662325 55.43518266 -41.13734036 58.82660413 -38.5234375 62.20703125 C-37.1094221 64.10863755 -37.1094221 64.10863755 -35 65 C-34.73751465 64.30447021 -34.4750293 63.60894043 -34.20458984 62.89233398 C-32.88398712 59.72144212 -31.34695219 56.7515454 -29.7265625 53.72265625 C-29.40656784 53.12300552 -29.08657318 52.5233548 -28.75688171 51.90553284 C-27.71566822 49.95637127 -26.67053864 48.0093445 -25.625 46.0625 C-24.90249485 44.71342873 -24.1800835 43.36430722 -23.45776367 42.01513672 C-21.31023958 38.00736047 -19.15616698 34.00313169 -17 30 C-16.39075684 28.86836426 -15.78151367 27.73672852 -15.15380859 26.57080078 C-13.54433252 23.58651587 -11.92998639 20.60494961 -10.3125 17.625 C-9.84473145 16.76011963 -9.37696289 15.89523926 -8.89501953 15.00415039 C-7.61572002 12.65814836 -6.31364395 10.32691044 -5 8 C-4.57122559 7.2172168 -4.14245117 6.43443359 -3.70068359 5.62792969 C-3.06573975 4.52433105 -3.06573975 4.52433105 -2.41796875 3.3984375 C-2.04824951 2.74278809 -1.67853027 2.08713867 -1.29760742 1.41162109 C-0.86939697 0.94578613 -0.44118652 0.47995117 0 0 Z " fill="#ECDFDF" transform="translate(277,159)"/>
<path d="M0 0 C1.27617187 0.02320313 2.55234375 0.04640625 3.8671875 0.0703125 C5.78917969 0.09738281 5.78917969 0.09738281 7.75 0.125 C9.23113281 0.15980469 9.23113281 0.15980469 10.7421875 0.1953125 C10.81638961 4.27034044 10.8708132 8.34510642 10.90698242 12.4206543 C10.92206147 13.80679169 10.942528 15.19288144 10.96850586 16.57885742 C11.00492466 18.57189396 11.02031768 20.56527973 11.03515625 22.55859375 C11.0508667 23.75782471 11.06657715 24.95705566 11.08276367 26.19262695 C10.7421875 29.1953125 10.7421875 29.1953125 9.40625 31.09179688 C6.83279543 32.7983718 4.5915567 32.48077602 1.5546875 32.3828125 C0.46800781 32.35574219 -0.61867188 32.32867187 -1.73828125 32.30078125 C-2.98544922 32.24857422 -2.98544922 32.24857422 -4.2578125 32.1953125 C-4.2578125 30.8753125 -4.2578125 29.5553125 -4.2578125 28.1953125 C-1.2878125 28.1953125 1.6821875 28.1953125 4.7421875 28.1953125 C4.4121875 26.8753125 4.0821875 25.5553125 3.7421875 24.1953125 C2.6284375 24.2159375 1.5146875 24.2365625 0.3671875 24.2578125 C-3.2578125 24.1953125 -3.2578125 24.1953125 -5.2578125 23.1953125 C-5.31570256 19.73704908 -5.35137071 16.27890957 -5.3828125 12.8203125 C-5.39957031 11.83546875 -5.41632813 10.850625 -5.43359375 9.8359375 C-5.44003906 8.89492188 -5.44648438 7.95390625 -5.453125 6.984375 C-5.46359863 6.11506348 -5.47407227 5.24575195 -5.48486328 4.35009766 C-5.08338791 0.53996688 -3.63819747 0.21811735 0 0 Z " fill="#D72525" transform="translate(320.2578125,320.8046875)"/>
<path d="M0 0 C1.06347656 0.00386719 2.12695312 0.00773437 3.22265625 0.01171875 C5.9375 0.3125 5.9375 0.3125 7.9375 2.3125 C8.19628906 4.43554688 8.19628906 4.43554688 8.203125 7.03125 C8.20699219 8.42923828 8.20699219 8.42923828 8.2109375 9.85546875 C8.20320313 10.83128906 8.19546875 11.80710937 8.1875 12.8125 C8.19523437 13.78832031 8.20296875 14.76414062 8.2109375 15.76953125 C8.20835937 16.70152344 8.20578125 17.63351562 8.203125 18.59375 C8.20086914 19.45033203 8.19861328 20.30691406 8.19628906 21.18945312 C7.9375 23.3125 7.9375 23.3125 5.9375 25.3125 C2.96875 25.61328125 2.96875 25.61328125 -0.5625 25.625 C-2.31046875 25.65013672 -2.31046875 25.65013672 -4.09375 25.67578125 C-5.0734375 25.55589844 -6.053125 25.43601562 -7.0625 25.3125 C-9.84345904 21.14106144 -9.39320347 17.71287332 -9.375 12.8125 C-9.39111328 11.94496094 -9.40722656 11.07742188 -9.42382812 10.18359375 C-9.42447266 9.34957031 -9.42511719 8.51554687 -9.42578125 7.65625 C-9.42876221 6.89505859 -9.43174316 6.13386719 -9.43481445 5.34960938 C-8.46512976 0.04400343 -4.70583879 -0.07433281 0 0 Z " fill="#D72929" transform="translate(300.0625,320.6875)"/>
<path d="M0 0 C2.96875 -0.328125 2.96875 -0.328125 6.5 -0.25 C7.6653125 -0.23453125 8.830625 -0.2190625 10.03125 -0.203125 C13 0 13 0 15 1 C15 3.97 15 6.94 15 10 C13.35 10 11.7 10 10 10 C10 8.02 10 6.04 10 4 C8.02 4 6.04 4 4 4 C4.33 11.59 4.66 19.18 5 27 C6.32 27 7.64 27 9 27 C9.33 25.35 9.66 23.7 10 22 C11.65 22 13.3 22 15 22 C15 24.97 15 27.94 15 31 C12.29437257 32.35281371 10.08106345 32.20609362 7.0625 32.25 C6.00160156 32.27578125 4.94070312 32.3015625 3.84765625 32.328125 C1 32 1 32 -0.65527344 30.84667969 C-2.55684442 28.23529935 -2.37235068 26.33312835 -2.36328125 23.125 C-2.36263672 21.97515625 -2.36199219 20.8253125 -2.36132812 19.640625 C-2.34521484 18.43921875 -2.32910156 17.2378125 -2.3125 16 C-2.31572266 14.79859375 -2.31894531 13.5971875 -2.32226562 12.359375 C-2.26702617 3.40053925 -2.26702617 3.40053925 0 0 Z " fill="#D72A2A" transform="translate(180,314)"/>
<path d="M0 0 C1.98 0 3.96 0 6 0 C6.33 6.6 6.66 13.2 7 20 C8.32 20 9.64 20 11 20 C11 13.4 11 6.8 11 0 C12.65 0 14.3 0 16 0 C16 8.25 16 16.5 16 25 C13.66666667 25 11.33333333 25 9 25 C7.845 25.061875 6.69 25.12375 5.5 25.1875 C4.345 25.125625 3.19 25.06375 2 25 C-0.20192224 21.69711664 -0.23959968 20.72537273 -0.1953125 16.89453125 C-0.18886719 15.91162109 -0.18242187 14.92871094 -0.17578125 13.91601562 C-0.15902344 12.89185547 -0.14226562 11.86769531 -0.125 10.8125 C-0.11597656 9.77673828 -0.10695312 8.74097656 -0.09765625 7.67382812 C-0.0740786 5.11565315 -0.0411703 2.55794252 0 0 Z " fill="#D72424" transform="translate(202,321)"/>
<path d="M0 0 C0.33 0 0.66 0 1 0 C1 11.22 1 22.44 1 34 C-0.32 34 -1.64 34 -3 34 C-5.2109375 31.5859375 -5.2109375 31.5859375 -7.375 28.375 C-8.10460937 27.33085937 -8.83421875 26.28671875 -9.5859375 25.2109375 C-11 22 -11 22 -10.515625 19.125 C-8.6119026 15.19979918 -6.55956502 11.40020143 -4.375 7.625 C-3.95476562 6.88894531 -3.53453125 6.15289062 -3.1015625 5.39453125 C-2.07247236 3.5936235 -1.03689244 1.79642682 0 0 Z " fill="#D72525" transform="translate(332,197)"/>
<path d="M0 0 C0.99 0.99 1.98 1.98 3 3 C0.36 8.61 -2.28 14.22 -5 20 C-5.99 20 -6.98 20 -8 20 C-10.078125 17.48046875 -10.078125 17.48046875 -12.25 14.1875 C-12.97703125 13.10855469 -13.7040625 12.02960938 -14.453125 10.91796875 C-15.21882812 9.47357422 -15.21882812 9.47357422 -16 8 C-14.75737548 4.27212644 -13.54939866 3.76087611 -10.25 1.75 C-8.95835937 0.93789062 -8.95835937 0.93789062 -7.640625 0.109375 C-4.50536656 -1.20780458 -3.16952937 -1.15446434 0 0 Z " fill="#D72828" transform="translate(259,97)"/>
<path d="M0 0 C3.1185662 2.85126053 5.47109168 5.57106804 7.67578125 9.1875 C8.11446533 9.90292969 8.55314941 10.61835938 9.00512695 11.35546875 C9.33343506 11.89816406 9.66174316 12.44085938 10 13 C6.38273023 15.20048356 2.755026 17.38313495 -0.875 19.5625 C-2.42380859 20.50512695 -2.42380859 20.50512695 -4.00390625 21.46679688 C-4.99003906 22.05654297 -5.97617187 22.64628906 -6.9921875 23.25390625 C-7.90339355 23.80377197 -8.81459961 24.3536377 -9.75341797 24.92016602 C-10.86547607 25.45468384 -10.86547607 25.45468384 -12 26 C-12.66 25.67 -13.32 25.34 -14 25 C-11.85701953 21.01929048 -9.71014143 17.04069653 -7.5625 13.0625 C-6.95083984 11.92619141 -6.33917969 10.78988281 -5.70898438 9.61914062 C-5.12568359 8.53955078 -4.54238281 7.45996094 -3.94140625 6.34765625 C-3.40201416 5.34742432 -2.86262207 4.34719238 -2.30688477 3.31665039 C-1 1 -1 1 0 0 Z " fill="#D72828" transform="translate(319,221)"/>
<path d="M0 0 C1.98 0 3.96 0 6 0 C6 1.65 6 3.3 6 5 C6.99 5 7.98 5 9 5 C9 6.32 9 7.64 9 9 C8.01 9 7.02 9 6 9 C6 14.28 6 19.56 6 25 C7.32 25 8.64 25 10 25 C10 26.65 10 28.3 10 30 C3.50467761 30.36765976 3.50467761 30.36765976 1.2878418 28.75268555 C-0.30953196 26.57874315 -0.34988641 25.44466137 -0.29296875 22.76953125 C-0.28330078 21.96708984 -0.27363281 21.16464844 -0.26367188 20.33789062 C-0.23853516 19.50451172 -0.21339844 18.67113281 -0.1875 17.8125 C-0.17396484 16.96751953 -0.16042969 16.12253906 -0.14648438 15.25195312 C-0.11115799 13.16769616 -0.05735139 11.08376723 0 9 C-0.66 9 -1.32 9 -2 9 C-2 7.68 -2 6.36 -2 5 C-1.34 5 -0.68 5 0 5 C0 3.35 0 1.7 0 0 Z " fill="#D82F2F" transform="translate(226,316)"/>
<path d="M0 0 C1.98 0 3.96 0 6 0 C6 11.22 6 22.44 6 34 C4.02 34 2.04 34 0 34 C0 22.78 0 11.56 0 0 Z " fill="#D72929" transform="translate(278,312)"/>
<path d="M0 0 C1 3 1 3 0.0390625 5.0859375 C-0.42757813 5.84132812 -0.89421875 6.59671875 -1.375 7.375 C-3.36284521 10.60663663 -4.42830217 13.23743054 -5 17 C-5.66 17 -6.32 17 -7 17 C-9.17341896 20.95466208 -11.33758201 24.91431341 -13.5 28.875 C-14.12003906 30.00292969 -14.74007813 31.13085938 -15.37890625 32.29296875 C-15.96542969 33.36933594 -16.55195313 34.44570312 -17.15625 35.5546875 C-17.70087891 36.54968262 -18.24550781 37.54467773 -18.80664062 38.56982422 C-20.14692717 40.84797621 -20.14692717 40.84797621 -20 43 C-21.65 43.66 -23.3 44.32 -25 45 C-23.52890425 41.09496687 -21.72953895 37.49178551 -19.7421875 33.82421875 C-19.11699219 32.66728516 -18.49179687 31.51035156 -17.84765625 30.31835938 C-17.19016295 29.10804098 -16.53261012 27.89775493 -15.875 26.6875 C-15.20938713 25.45781666 -14.54402002 24.22800025 -13.87890625 22.99804688 C-12.25501624 19.99738054 -10.62863329 16.99809374 -9 14 C-8.34 14 -7.68 14 -7 14 C-6.731875 12.96875 -6.46375 11.9375 -6.1875 10.875 C-5.17639728 7.3468969 -3.82713539 4.19748692 -2 1 C-1.34 0.67 -0.68 0.34 0 0 Z " fill="#ECE1E1" transform="translate(326,205)"/>
<path d="M0 0 C0.66 0 1.32 0 2 0 C1.35975848 4.16980296 -0.03891797 7.55999932 -1.8359375 11.3671875 C-2.11595612 11.96500031 -2.39597473 12.56281311 -2.68447876 13.17874146 C-3.57618499 15.07995919 -4.47527534 16.97756565 -5.375 18.875 C-6.26606494 20.76597331 -7.15555933 22.65767357 -8.0440979 24.54983521 C-8.85398401 26.27262599 -9.66784428 27.99354688 -10.48193359 29.71435547 C-12.05475081 33.11850055 -13.53825176 36.54699546 -15 40 C-15.99 40 -16.98 40 -18 40 C-16.49230317 35.10166053 -14.5030873 30.5897018 -12.3046875 25.9765625 C-11.95238068 25.23038666 -11.60007385 24.48421082 -11.23709106 23.71542358 C-10.11957157 21.35043038 -8.99736523 18.98769677 -7.875 16.625 C-7.11296975 15.01447027 -6.35124774 13.40379465 -5.58984375 11.79296875 C-3.73012511 7.86028208 -1.86620201 3.92961396 0 0 Z " fill="#ECDFDF" transform="translate(215,199)"/>
<path d="M0 0 C1.65 0 3.3 0 5 0 C5 5.61 5 11.22 5 17 C3.35 17 1.7 17 0 17 C0 11.39 0 5.78 0 0 Z " fill="#EDE7E7" transform="translate(297,325)"/>
<path d="M0 0 C1.98 0.495 1.98 0.495 4 1 C4 5.95 4 10.9 4 16 C2.35 15.67 0.7 15.34 -1 15 C-1.02685412 12.68756208 -1.04632841 10.3750373 -1.0625 8.0625 C-1.07410156 6.77472656 -1.08570313 5.48695313 -1.09765625 4.16015625 C-1 1 -1 1 0 0 Z " fill="#EBDCDC" transform="translate(321,325)"/>
<path d="M0 0 C2.31 0 4.62 0 7 0 C7.02689216 1.47906892 7.04634621 2.95827483 7.0625 4.4375 C7.07410156 5.26121094 7.08570313 6.08492188 7.09765625 6.93359375 C7 9 7 9 6 10 C4.00041636 10.04080783 1.99954746 10.04254356 0 10 C0 6.7 0 3.4 0 0 Z " fill="#EBD6D6" transform="translate(258,332)"/>
<path d="M0 0 C2.31 0 4.62 0 7 0 C7.02689216 1.47906892 7.04634621 2.95827483 7.0625 4.4375 C7.07410156 5.26121094 7.08570313 6.08492188 7.09765625 6.93359375 C7 9 7 9 6 10 C4.00041636 10.04080783 1.99954746 10.04254356 0 10 C0 6.7 0 3.4 0 0 Z " fill="#EAD1D1" transform="translate(258,318)"/>
<path d="M0 0 C0.66 0 1.32 0 2 0 C1.41584531 3.61393308 0.44519602 6.42476184 -1.28515625 9.64453125 C-1.73310547 10.48564453 -2.18105469 11.32675781 -2.64257812 12.19335938 C-3.11115234 13.05767578 -3.57972656 13.92199219 -4.0625 14.8125 C-4.53494141 15.69615234 -5.00738281 16.57980469 -5.49414062 17.49023438 C-6.65703284 19.66331578 -7.82578375 21.83302284 -9 24 C-9.99 24 -10.98 24 -12 24 C-10.42195846 18.39523177 -7.73583615 13.64949374 -4.875 8.625 C-4.17310547 7.37783203 -4.17310547 7.37783203 -3.45703125 6.10546875 C-2.30929451 4.06765046 -1.15686718 2.03264431 0 0 Z " fill="#ECDCDC" transform="translate(239,228)"/>
<path d="M0 0 C1 3 1 3 0.0390625 5.0859375 C-0.42757813 5.84132812 -0.89421875 6.59671875 -1.375 7.375 C-3.36284521 10.60663663 -4.42830217 13.23743054 -5 17 C-5.66 16.34 -6.32 15.68 -7 15 C-6.77571049 9.28061751 -5.07932112 5.66563806 -2 1 C-1.34 0.67 -0.68 0.34 0 0 Z " fill="#ECDEDE" transform="translate(326,205)"/>
<path d="M0 0 C1.305239 3.91571701 0.32239848 5.03892997 -1.4375 8.6875 C-1.91058594 9.68136719 -2.38367188 10.67523438 -2.87109375 11.69921875 C-3.42990234 12.83810547 -3.42990234 12.83810547 -4 14 C-5.14453125 12.29296875 -5.14453125 12.29296875 -6 10 C-5.13671875 7.67578125 -5.13671875 7.67578125 -3.6875 5.3125 C-3.21699219 4.52488281 -2.74648437 3.73726562 -2.26171875 2.92578125 C-1 1 -1 1 0 0 Z " fill="#EDE6E6" transform="translate(248,131)"/>
<path d="M0 0 C1 3 1 3 0.328125 5.0078125 C-0.02765625 5.70648438 -0.3834375 6.40515625 -0.75 7.125 C-1.26820313 8.18074219 -1.26820313 8.18074219 -1.796875 9.2578125 C-3 11 -3 11 -6 12 C-4.68139111 7.38486888 -2.78644563 3.90102388 0 0 Z " fill="#EDE9E9" transform="translate(225,180)"/>
<path d="M0 0 C1 3 1 3 -0.4375 6.1875 C-1.2109375 7.5796875 -1.2109375 7.5796875 -2 9 C-2.99 9 -3.98 9 -5 9 C-3.90931332 5.22454612 -3.0916909 2.52956528 0 0 Z " fill="#EBD7D7" transform="translate(206,221)"/>
<path d="M0 0 C1 3 1 3 -0.25 6.125 C-2 9 -2 9 -5 10 C-3.84414715 6.08788267 -2.64465038 3.1254959 0 0 Z " fill="#EDE8E8" transform="translate(210,212)"/>
<path d="M0 0 C0.99 0.33 1.98 0.66 3 1 C1.68 3.64 0.36 6.28 -1 9 C-1.66 8.67 -2.32 8.34 -3 8 C-1.125 2.25 -1.125 2.25 0 0 Z " fill="#ECE3E3" transform="translate(329,197)"/>
<path d="M0 0 C0.66 0.33 1.32 0.66 2 1 C1.25 5.75 1.25 5.75 -1 8 C-1.66 8 -2.32 8 -3 8 C-1.125 2.25 -1.125 2.25 0 0 Z " fill="#EBD5D5" transform="translate(291,132)"/>
<path d="M0 0 C0.33 0.66 0.66 1.32 1 2 C0.06553465 4.03144641 -0.93224776 6.03533587 -2 8 C-2.99 8 -3.98 8 -5 8 C-3.8141763 4.62496331 -2.72426311 2.35277269 0 0 Z " fill="#ECE3E3" transform="translate(247,216)"/>
<path d="M0 0 C1.31223496 3.93670488 0.24296256 6.12488144 -1 10 C-1.66 9.34 -2.32 8.68 -3 8 C-2.75 4.4375 -2.75 4.4375 -2 1 C-1.34 0.67 -0.68 0.34 0 0 Z " fill="#EAD0D0" transform="translate(322,212)"/>
<path d="M0 0 C0.33 0.99 0.66 1.98 1 3 C-0.3125 5.1875 -0.3125 5.1875 -2 7 C-2.66 7 -3.32 7 -4 7 C-3.39816251 4.97954558 -2.72693904 2.97888961 -2 1 C-1.34 0.67 -0.68 0.34 0 0 Z " fill="#EBD8D8" transform="translate(228,174)"/>
<path d="M0 0 C0.33 0.99 0.66 1.98 1 3 C-0.3125 5.1875 -0.3125 5.1875 -2 7 C-2.66 7 -3.32 7 -4 7 C-3.39816251 4.97954558 -2.72693904 2.97888961 -2 1 C-1.34 0.67 -0.68 0.34 0 0 Z " fill="#EBD8D8" transform="translate(235,159)"/>
<path d="M0 0 C1.2077558 3.62326739 0.54311128 4.64146369 -1 8 C-1.33 7.01 -1.66 6.02 -2 5 C-2.66 4.67 -3.32 4.34 -4 4 C-2.68 2.68 -1.36 1.36 0 0 Z " fill="#EBD5D5" transform="translate(220,191)"/>
</svg>
